<svg width="18" height="19" viewBox="0 0 18 19" fill="none" xmlns="http://www.w3.org/2000/svg">
<path d="M4 1L1.5 4.33333V16C1.5 16.442 1.67559 16.8659 1.98816 17.1785C2.30072 17.4911 2.72464 17.6667 3.16667 17.6667H14.8333C15.2754 17.6667 15.6993 17.4911 16.0118 17.1785C16.3244 16.8659 16.5 16.442 16.5 16V4.33333L14 1H4Z" stroke="black" stroke-width="1.5" stroke-linecap="round" stroke-linejoin="round"/>
<path d="M1.5 4.33333H16.5" stroke="black" stroke-width="1.5" stroke-linecap="round" stroke-linejoin="round"/>
<path d="M12.3333 7.66666C12.3333 8.55071 11.9821 9.39856 11.357 10.0237C10.7319 10.6488 9.88401 11 8.99996 11C8.1159 11 7.26806 10.6488 6.64294 10.0237C6.01782 9.39856 5.66663 8.55071 5.66663 7.66666" stroke="black" stroke-width="1.5" stroke-linecap="round" stroke-linejoin="round"/>
</svg>
